<?xml version="1.0" encoding="UTF-8"?>
<!DOCTYPE svg  PUBLIC '-//W3C//DTD SVG 1.1//EN'  'http://www.w3.org/Graphics/SVG/1.1/DTD/svg11.dtd'>
<svg width="210mm" height="297mm" clip-rule="evenodd" fill-rule="evenodd" image-rendering="optimizeQuality" shape-rendering="geometricPrecision" text-rendering="geometricPrecision" version="1.1" viewBox="0 0 21000 29700" xml:space="preserve" xmlns="http://www.w3.org/2000/svg">
 <defs>
  <style type="text/css">
   <![CDATA[
    .str0 {stroke:#484A25;stroke-width:105.83}
    .fil3 {fill:none}
    .fil0 {fill:#FEFEFE}
    .fil1 {fill:#484A25}
    .fil2 {fill:#A8C33E}
   ]]>
  </style>
 </defs>
  <circle class="fil0" transform="matrix(.88199 0 -.19107 .88199 10242 13596)" r="4763"/>
  <path class="fil1" d="m7733 17079c-7-34-16-88-7-143 9-54 37-108 60-143 23-36 41-54 56-62 14-9 26-8 39-5 14 4 30 9 46 14-12-23-23-46-33-66-10-19-18-36-9-104 9-67 35-185 60-267 25-81 50-126 69-188 20-61 35-139 37-209s-10-133-19-188-16-102-11-155 23-111 44-213c20-102 44-248 67-404 8-53 16-108 23-160 0-66 1-133-1-190-1-57-6-105-10-152-13 89-27 178-48 259-21 82-50 156-79 230 10-83 21-166 25-259 3-93 0-196-9-267-9-70-23-108-37-146 14 61 28 122 35 203 6 82 5 184-5 288s-29 210-49 316c7-66 14-132 13-199-2-67-13-135-29-203s-37-136-44-222c-8-86-2-190 5-294-20 75-39 150-51 220-12 69-16 134-21 198-17-151-35-302-33-413 1-112 23-184 44-256-34 74-67 148-95 241s-50 205-72 317c14-119 28-238 45-331s36-159 64-226c27-67 62-135 83-182 21-48 29-75 36-103-16 22-32 43-46 71-14 29-27 65-39 101 11-57 23-114 43-167s50-102 73-148 41-90 59-134c-37 33-75 67-111 118-36 52-71 122-106 191 16-58 33-116 64-174 32-58 78-115 109-160 32-44 50-76 67-108 17-31 34-63 51-95-15 16-30 32-55 47-24 16-57 31-91 46 37-29 74-59 105-91 30-32 54-67 78-102-36 35-73 70-107 102s-67 60-100 88c35-49 69-99 114-162s101-140 161-200c60-61 124-106 184-138 59-32 114-50 169-68 29-29 57-55 86-79 75-62 149-107 216-144 68-37 128-66 181-87s98-33 143-45c14-66 28-131 44-183 16-53 34-93 51-132-12 1-24 3-31-1s-9-13-4-24 16-22 29-33c13-10 27-20 43-41 15-22 33-56 49-86 15-30 28-56 37-83 9-26 13-52 6-106-7-53-25-133-35-195-9-62-9-105-8-142 0-36 1-66-1-109s-6-98-5-137c2-38 9-59 15-78 7-19 13-36 22-49 10-13 22-23 29-34 8-10 11-22 20-38 10-16 27-38 58-66 30-28 75-63 101-88 26-24 34-37 44-45 10-7 23-9 34-14 11-4 20-12 29-17 9-4 19-5 30-9s24-11 33-20c10-10 17-21 24-26 6-6 12-5 33-12 21-8 56-24 103-46 47-23 105-52 166-71s124-27 175-31c50-3 88 0 117-4s48-15 67-25c-9-62-19-124-20-181-1-58 7-112 28-161s54-93 103-126c48-33 112-55 171-62 60-7 115 1 170 21 56 20 110 53 150 95 41 43 66 95 83 146 17 52 25 103 33 154 20 18 40 35 49 53 10 19 8 37-4 49-11 12-32 17-59 21-27 3-60 5-92 7-8 49-16 99-24 148 18 8 37 16 49 32s17 41 25 61 18 35 31 41c13 7 28 5 40-3 13-8 22-22 33-36s22-28 36-35c14-6 31-5 43-3 11 3 17 7 26 6 10-2 22-10 61-26 40-16 106-40 163-53 58-14 108-18 147-18s68 2 88 4c21 2 32 3 46 1s29-6 49-3 44 13 67 22c24 9 47 16 70 18 22 3 45 0 61 0s25 3 34 5c15-31 30-62 56-96 26-35 63-74 100-113 16 60 32 120 38 166 7 47 4 79 2 112 21 8 42 16 66 23s52 13 71 14 29-4 57-21c28-18 73-49 103-72 31-23 47-39 68-61s47-51 68-71 36-33 51-45c3 55 7 109 0 160s-25 98-58 148c-34 51-83 106-133 160-1 13-1 25-2 37 7 2 14 4 21 16 7 13 14 36 17 52 4 15 4 24 4 33 20 32 41 64 61 95-11 15-21 30-32 45 17 22 34 44 44 67 10 22 13 45 25 65 12 19 32 35 39 49 6 14-2 26-10 43-8 16-16 36-23 51-6 15-11 23-24 85-12 62-32 176-41 247s-8 97-2 139 18 99 27 135c10 36 18 51 22 68 3 17 2 35 4 60 3 24 8 54 27 100 19 47 51 109 66 154 14 45 9 73 3 95-6 23-14 42-29 72s-37 71-49 104c-11 32-12 55-20 72-8 18-23 30-38 36-16 7-32 7-49 11-18 4-37 11-53 15-15 4-27 4-49-4-22-9-54-27-78-38s-39-15-52-23c-12-7-23-18-37-31-13-13-30-29-40-50s-14-46-22-79c-9-33-22-72-28-96-5-25-4-34-25-78-7-14-16-32-26-51-2 3-4 6-5 8-6 8-12 12-21 13s-21-1-37-10c-4-2-9-5-14-9-6 12-12 23-17 33-19 31-34 47-46 60-13 13-23 22-33 31 5 4 10 8 9 11 0 3-5 6-12 8-7 1-15 2-22 2-8 0-14 0-37 1s-64 3-98 1c-21-1-41-4-57-8 0 20-2 39-4 60-9 71-30 148-35 196-4 48 8 67 27 101 20 34 46 83 72 122 26 40 52 71 93 105s97 71 138 97c41 27 65 43 82 70 18 28 27 68 28 119 0 51-9 114-45 172-37 59-101 114-135 150-33 37-36 55-52 84-16 30-45 69-74 101-29 31-58 54-72 78-13 23-12 48-20 75-8 28-27 58-44 75-16 17-31 22-46 19-14-2-27-11-40-19-8 3-16 7-27 6s-25-6-37-10c-12-3-22-5-31-7-2 11-4 23-14 33-9 9-27 17-37 21-9 4-11 4-13 4-9 10-17 20-30 24-13 5-30 5-46 4-16 0-31-2-46-4-7 10-14 19-28 27-15 7-37 13-55 18-19 5-34 11-52 18-19 7-41 16-64 19-23 4-47 2-80 5-33 4-75 13-101 16-26 4-36 2-51-11s-35-38-45-69c-9-32-9-70 3-112 11-42 33-87 51-118 19-31 33-47 45-54 12-6 23-4 37-7 15-3 34-12 41-23 8-12 6-27 17-53 12-25 37-60 75-92 38-31 88-60 139-88 8-32 16-63 26-93s22-59 24-76c3-18-5-25-22-33s-42-17-63-17-37 9-66 27c-30 18-73 46-98 62s-32 22-47 36c-15 15-37 39-56 53s-36 18-49 33c-14 14-23 39-36 55s-29 23-44 28c-16 5-31 7-46 16s-30 24-90 52c-61 29-168 71-254 91s-151 17-198 10c-48-8-77-20-96-35-19-16-27-34-36-53-61 6-122 13-183 19-10 13-21 26-32 39-1 82-3 164-15 257-13 93-36 196-58 256-22 61-43 78-99 142s-147 174-198 245-63 103-89 174c-27 70-68 180-115 252-46 73-99 109-126 140-28 30-32 55-43 99-12 43-31 106-54 154-23 49-49 83-77 151-29 67-59 168-75 238-16 71-19 111-18 134 2 23 7 29 10 38 4 10 6 24 1 47-5 22-16 53-31 113-15 61-34 151-48 204-15 53-26 68-37 78-12 9-26 12-33 24-8 13-9 36-9 74 1 37 3 89-3 132-6 44-21 78-34 118s-23 86-47 118-61 51-97 57-72 0-109-29-75-81-92-139-12-121-6-159c7-38 14-50 22-59 9-8 20-13 29-19 9-7 17-16 23-32 5-16 8-40 9-59 1-20 1-35 6-60s15-60 42-121 72-147 104-219c31-71 49-128 62-156 13-29 22-30 31-31 15-111 30-222 37-309 8-87 8-150 11-227 3-78 9-170 28-241 19-70 51-119 85-184s71-148 99-227c27-79 45-156 49-217 4-62-6-107-16-153-38-18-76-36-107-60-32-24-58-55-73-80-16-25-23-45-29-64-9 26-19 51-26 79-7 29-12 59-29 85-18 25-49 44-71 58-23 14-37 23-64 65-28 42-68 117-113 210-45 94-94 206-135 302-40 95-71 175-84 243-13 67-9 124-9 167s-4 73-12 98c-8 26-19 46-41 101-22 56-53 147-73 209-20 61-28 94-36 154s-16 147-18 196c-1 48 3 58 8 68 0 25 0 50 1 111 0 61 2 159 1 222-2 62-6 89-17 109-11 19-29 30-39 37-11 6-14 7-18 7-2 57-3 113-12 166-8 52-23 101-41 145s-40 84-68 111-63 42-97 46-67-3-93-16c-26-12-45-31-57-47s-16-29-24-63zm4401-4777c-8-7-16-15-22-25-14-19-23-43-28-69l-3-24c-8-1-17-5-27-10-21-12-45-34-73-58s-59-51-99-82c-39-30-86-64-132-97-37-27-74-54-100-73-5 10-9 19-14 29 31 62 62 123 91 172 30 49 58 85 75 124 17 38 22 79 26 132 3 26 5 56 5 88 32 4 64 8 91 9 34 1 62-3 77-4 15-2 17 0 20 2s7 3 10 5c18-12 35-24 52-43 18-19 35-44 51-76zm11-21c9-19 18-40 27-61-9-15-18-31-27-45-14-23-27-44-40-63-3 5-5 10-7 17 8 6 15 7 17 15 2 9 0 28-11 36-2 1-4 2-7 3 4 18 10 37 20 56 8 15 18 30 28 42zm37-43c-9 19-18 37-27 54l1 1c13 12 25 15 33 15 9 1 13-2 18-11 1-2 2-5 3-8-9-17-18-34-28-51zm-98-124c2-8 5-15 7-20-16-22-34-43-57-65-48-46-116-99-161-142s-68-77-83-109-21-63-27-94c-27 38-55 76-76 111-9 15-17 29-24 44 4 2 10 5 15 8 40 22 98 66 142 96 43 30 73 46 93 54 21 8 33 9 44 14 11 6 20 16 39 30 18 14 45 32 64 48 10 10 18 18 24 25zm-371 1285c-11 20-23 41-32 57-10 16-18 28-22 37-5 9-6 15-6 23-1 7 0 16-1 31 0 15-1 37-3 57-1 19-3 36-5 48-1 12-2 19-3 26 17-11 34-21 59-40 25-20 58-50 79-69 21-20 31-30 43-42 13-13 28-27 37-39 8-12 10-23 11-34 0-11 1-23 0-32 0-9-2-16-2-22s1-10 2-16c0-6 0-13-1-18s-3-7-5-7c-2-1-3-1-4 0-30 12-59 25-83 32-25 6-44 7-64 8z"/>
  <path class="fil2" d="m13060 16112c127-131 248-269 362-412l-7133 326c63 128 135 251 214 368l6557-282zm714-907c108-170 206-347 293-527l-8083 369c26 168 63 331 111 488l7679-330z"/>
  <circle class="fil3 str0" transform="matrix(.88199 0 -.19107 .88199 10242 13596)" r="4763"/>
</svg>
